<svg width="505" height="336" viewBox="0 0 505 336" fill="none" xmlns="http://www.w3.org/2000/svg">
<path d="M207.445 200.327C203.409 196.888 198.416 194.808 193.479 192.866C185.699 189.787 160.277 177.291 142.289 175.835C166.56 162.729 183.022 137.349 183.022 108.183C183.022 65.5922 147.948 31.0728 104.677 31.0728C61.4066 31.0728 26.3324 65.6061 26.3324 108.183C26.3324 136.795 42.1844 161.758 65.692 175.072C48.4947 178.318 27.6083 188.511 20.6878 191.243C15.7505 193.199 10.7716 195.265 6.73578 198.705C2.69996 202.144 -0.2957 207.206 0.0232827 212.504C0.453215 219.522 6.70804 225.139 13.5176 226.859C20.3272 228.578 27.539 227.15 34.2653 225.139C38.4121 223.891 47.7458 220.229 57.6342 215.209C56.8576 219.522 56.4277 223.849 56.4277 228.051C54.3473 253.542 52.267 279.047 50.2006 304.538C49.8538 308.809 49.5071 313.164 50.5334 317.325C51.5458 321.485 54.1809 325.493 58.1751 327.033C62.2664 328.6 67.0234 327.296 70.5322 324.675C74.041 322.054 76.4958 318.295 78.7009 314.509C87.2302 299.794 92.8055 283.374 95.0384 266.523C98.3114 266.662 101.612 266.537 104.857 266.19C105.925 266.079 107.007 265.927 108.075 265.76C110.141 283.249 115.814 300.308 124.634 315.549C126.826 319.336 129.294 323.094 132.803 325.715C136.312 328.336 141.069 329.64 145.16 328.073C149.154 326.534 151.789 322.525 152.802 318.365C153.814 314.204 153.481 309.849 153.135 305.578C150.916 278.298 148.683 251.018 146.464 223.752C146.63 220.895 146.616 218.038 146.395 215.223C146.284 213.808 146.117 212.393 145.923 210.993C159.084 218.953 174.285 225.097 179.915 226.789C186.642 228.814 193.854 230.229 200.663 228.509C207.473 226.789 213.728 221.158 214.157 214.155C214.476 208.829 211.481 203.767 207.445 200.327Z" fill="#8C1A23"/>
<path d="M90.4617 134.797C89.2274 136.17 83.3886 129.208 73.0564 128.958C62.0307 128.694 55.4291 136.322 54.0977 134.797C52.3919 132.841 60.0058 116.601 72.2797 116.615C84.5675 116.629 92.126 132.938 90.4617 134.797Z" fill="#F4976B"/>
<path d="M180.969 135.851C179.735 137.224 173.896 130.262 163.564 130.013C152.538 129.749 145.937 137.377 144.605 135.851C142.899 133.896 150.513 117.656 162.787 117.669C175.089 117.683 182.634 133.993 180.969 135.851Z" fill="#F4976B"/>
<path d="M143.343 172.465C148.558 185.668 153.828 199.12 154.938 213.267C156.047 227.427 152.4 242.641 142.067 252.377C134.412 259.602 123.872 263.111 113.401 264.248C102.292 265.441 90.5864 264.054 81.0447 258.257C52.9743 241.226 67.2869 196.555 81.5856 174.642C88.7142 163.727 100.433 155.697 113.414 156.834C126.396 157.999 138.545 160.343 143.343 172.465Z" fill="url(#paint0_linear_196_2998)"/>
<path d="M29.2311 189.315C24.2938 191.271 19.3011 193.337 15.2653 196.777C11.2294 200.216 8.23379 205.278 8.56664 210.576C8.99657 217.594 15.2514 223.211 22.061 224.93C28.8706 226.65 36.0823 225.221 42.8087 223.21C54.4862 219.702 107.451 197.012 97.7707 178.608C88.4093 160.815 40.451 184.877 29.2311 189.315Z" fill="url(#paint1_linear_196_2998)"/>
<path d="M113.22 183.366C156.489 183.366 191.565 148.842 191.565 106.255C191.565 63.6681 156.489 29.1445 113.22 29.1445C69.9517 29.1445 34.8755 63.6681 34.8755 106.255C34.8755 148.842 69.9517 183.366 113.22 183.366Z" fill="url(#paint2_linear_196_2998)"/>
<path d="M133.247 132.634C133.177 132.689 133.108 132.731 133.053 132.773C128.004 136.462 120.834 137.017 115.287 134.146C109.642 131.233 105.939 124.937 106.133 118.599C106.216 118.543 106.272 118.488 106.355 118.446C115.273 111.72 129.877 110.347 139.626 115.77C140.902 121.983 138.309 128.806 133.247 132.634Z" fill="#8C1A23"/>
<path d="M133.177 132.509C133.136 132.606 133.08 132.689 133.039 132.772C127.99 136.461 120.82 137.016 115.273 134.145C109.628 131.233 105.925 124.936 106.119 118.598C106.203 118.543 106.258 118.487 106.341 118.446C111.348 116.948 116.909 117.322 121.652 119.514C127.075 122.024 131.347 126.836 133.177 132.509Z" fill="#FFBCC3"/>
<g style="mix-blend-mode:overlay">
<path d="M123.229 123.182C123.953 122.093 120.27 119.461 119.257 120.806C118.265 122.166 122.523 124.269 123.229 123.182Z" fill="#FFB4B5"/>
</g>
<path d="M103.859 262.32C101.834 279.975 96.1341 297.2 87.2303 312.581C85.0391 316.367 82.5704 320.125 79.0616 322.747C75.5528 325.368 70.7958 326.671 66.7045 325.104C62.7103 323.565 60.0752 319.557 59.0628 315.396C58.0504 311.235 58.3833 306.881 58.73 302.609C61.0322 274.428 63.3205 246.246 65.6228 218.065C87.0778 223.862 106.383 240.255 103.859 262.32Z" fill="url(#paint3_linear_196_2998)"/>
<path d="M116.549 263.36C118.574 281.015 124.274 298.24 133.178 313.621C135.369 317.407 137.837 321.165 141.346 323.787C144.855 326.408 149.612 327.711 153.703 326.144C157.698 324.605 160.333 320.597 161.345 316.436C162.358 312.276 162.025 307.921 161.678 303.649C159.376 275.468 157.087 247.286 154.785 219.105C133.344 224.888 114.025 241.295 116.549 263.36Z" fill="url(#paint4_linear_196_2998)"/>
<g style="mix-blend-mode:multiply" opacity="0.3">
<path d="M95.7872 117.375C95.5236 122.34 91.4323 126.168 86.6476 125.919C81.8629 125.669 78.2015 121.425 78.465 116.46C78.7285 111.495 82.8198 107.667 87.6046 107.917C92.3893 108.166 96.0507 112.396 95.7872 117.375Z" fill="#CA6D92"/>
</g>
<path d="M95.6764 116.685C95.4545 120.984 91.7793 124.285 87.48 124.049C83.1807 123.827 79.8799 120.152 80.1156 115.853C80.3375 111.553 84.0128 108.253 88.3121 108.488C92.5976 108.724 95.8983 112.386 95.6764 116.685Z" fill="#730F03"/>
<g style="mix-blend-mode:overlay" opacity="0.3">
<path d="M83.4714 114.422C83.7673 117.87 87.3684 116.793 88.0488 113.618C88.7479 110.44 83.1429 110.457 83.4714 114.422Z" fill="#FFB4B5"/>
</g>
<path d="M202.036 190.952C206.973 192.907 211.952 194.974 216.002 198.413C220.038 201.853 223.033 206.915 222.701 212.213C222.271 219.23 216.016 224.847 209.206 226.567C202.397 228.287 195.185 226.858 188.458 224.847C176.781 221.338 123.816 198.649 133.496 180.245C142.858 162.438 190.816 186.514 202.036 190.952Z" fill="url(#paint5_linear_196_2998)"/>
<path d="M111.071 37.5492C112.61 37.5492 113.928 37.5908 115.107 37.6324C132.096 38.2981 144.827 44.6639 150.888 48.4084C160.499 54.3304 177.419 67.7138 182.869 90.8747C186.642 106.935 182.994 120.055 181.802 124.354C173.758 153.326 149.598 168.609 139.599 173.824L136.035 175.682L140.015 176.32C148.78 177.721 157.642 179.621 166.352 181.965C178.334 185.182 214.809 195.002 216.418 208.246C216.876 211.991 215.309 215.319 215.281 215.375C214.255 217.469 212.022 220.368 207.168 222.281C205.545 222.919 203.908 223.225 202.147 223.225C196.794 223.225 190.345 220.368 180.581 216.054L180.47 215.999C173.425 212.878 163.8 208.635 151.29 203.101L149.113 202.144L149.432 204.502C149.612 205.861 149.751 207.054 149.834 208.163C150.028 210.576 150.042 213.045 149.889 215.5V215.597L149.903 215.694L155.784 287.895C155.936 289.739 155.881 290.558 155.77 292.042C155.673 293.442 155.534 295.356 155.492 299.059C155.465 301.112 155.465 302.887 155.465 304.468C155.451 311.943 155.382 313.968 153.814 315.577C152.414 317.019 150.084 317.879 147.587 317.879C146.616 317.879 145.646 317.74 144.8 317.477C138.892 315.688 136.506 307.45 133.483 297.02L133.247 296.216C129.558 283.498 125.453 270.032 121.029 256.205L120.626 254.942L119.364 255.345C116.715 256.177 113.955 256.69 111.182 256.856C110.502 256.898 109.795 256.926 109.115 256.926C106.868 256.926 104.594 256.704 102.389 256.26L101.141 256.01L100.836 257.245C97.6319 270.073 94.0399 282.874 90.1843 295.301C87.1471 305.064 84.8726 311.236 78.9506 314.453C76.4404 315.826 73.3199 316.645 70.6016 316.645C68.3132 316.645 66.5519 316.062 65.6504 315.008C64.6935 313.871 64.8876 312.262 65.6088 307.769C65.803 306.521 66.0388 305.106 66.2745 303.456C66.7045 300.418 66.8848 297.326 67.0651 294.344C67.2176 291.944 67.3563 289.476 67.6337 287.063C70.4906 261.863 73.1535 226.484 73.1396 219.425C73.1396 215.93 73.4863 212.199 74.1797 208.343L74.6651 205.625L72.2381 206.929C65.692 210.451 58.827 213.364 51.851 215.583C43.9735 218.093 35.8187 220.7 29.2171 220.7C25.1952 220.7 22.0608 219.757 19.6476 217.802C19.4674 217.649 15.1403 214.085 15.1819 209.397C15.2512 203.614 22.0886 199.051 28.6901 194.655C34.4318 190.827 39.3829 188.747 40.756 188.192C52.3087 183.601 66.8986 179.26 82.9448 175.613L86.2317 174.864L83.3193 173.158C73.4724 167.403 49.9371 150.885 44.237 121.968C43.502 118.224 42.018 108.183 44.237 95.8674C46.0538 85.8126 52.8079 60.8904 76.3155 46.8135C86.5507 40.6558 98.2421 37.5492 111.071 37.5492ZM111.071 36.2178C103.179 36.2178 89.5048 37.3411 75.6221 45.6485C51.2824 60.2246 44.6669 85.9235 42.9195 95.6039C40.4924 109.084 42.4202 119.666 42.9195 122.204C49.1604 153.853 76.4958 170.703 82.6397 174.295C72.4323 176.612 55.6094 180.842 40.2428 186.944C39.3829 187.291 34.1128 189.412 27.9273 193.531C21.0761 198.094 13.8921 202.879 13.8228 209.37C13.7673 214.654 18.4411 218.551 18.7739 218.828C21.617 221.13 25.1813 222.032 29.1755 222.032C35.999 222.032 44.0983 219.438 52.2116 216.859C57.7036 215.097 64.8461 212.393 72.8206 208.108C72.141 211.922 71.7527 215.722 71.7527 219.438C71.7666 226.359 69.1315 261.502 66.2607 286.924C65.6504 292.36 65.6643 297.866 64.9015 303.289C63.8198 310.972 62.7935 313.788 64.5825 315.896C65.8307 317.366 68.0359 318.004 70.5461 318.004C73.4863 318.004 76.8425 317.116 79.5331 315.66C86.0792 312.096 88.4369 305.231 91.4048 295.731C94.5807 285.551 98.3114 272.708 102.084 257.605C103.928 257.98 106.3 258.299 109.074 258.299C109.767 258.299 110.488 258.285 111.223 258.229C114.677 258.021 117.575 257.328 119.725 256.648C125.369 274.289 129.391 287.853 131.929 296.632C135.189 307.866 137.602 316.756 144.37 318.794C145.368 319.1 146.45 319.252 147.546 319.252C150.208 319.252 152.968 318.364 154.73 316.548C157.171 314.037 156.657 310.834 156.782 299.115C156.865 291.431 157.379 291.542 157.074 287.825C155.118 263.763 153.149 239.687 151.193 215.624C151.346 213.114 151.318 210.59 151.124 208.094C151.027 206.846 150.888 205.597 150.708 204.363C163.231 209.897 172.856 214.141 179.888 217.261C189.915 221.699 196.447 224.598 202.105 224.598C204.006 224.598 205.808 224.265 207.611 223.557C208.86 223.072 213.963 221.061 216.432 215.999C216.432 215.999 218.207 212.351 217.694 208.121C215.974 193.975 179.86 184.267 166.657 180.717C155.298 177.666 145.923 175.96 140.181 175.044C146.727 171.633 174.285 156.335 183.05 124.742C184.437 119.763 187.904 106.657 184.132 90.5973C177.877 63.9831 156.657 50.4471 151.554 47.2989C147.199 44.6084 133.913 37.0638 115.12 36.3287C114.066 36.2732 112.693 36.2178 111.071 36.2178Z" fill="white"/>
<g style="mix-blend-mode:multiply" opacity="0.3">
<path d="M108.092 30.4022C110.909 29.9751 145.252 33.7779 145.252 33.7779L170.055 47.9833C171.9 49.6091 194.957 70.745 193.513 101.388C193.227 107.822 191.911 113.141 190.709 116.916C184.53 119.768 176.477 118.239 171.886 113.32C167.294 108.415 166.565 100.534 170.169 94.912C161.215 99.6655 149.486 99.1282 141.047 93.5618C132.594 88.0091 127.816 77.6754 129.175 67.9067C124.369 80.2795 113.055 90.131 99.7813 93.4929C86.5076 96.8548 71.6318 93.6444 61.1187 85.157C58.6585 93.3138 55.998 101.815 49.8904 107.932C43.9973 113.843 35.9354 115.129 30.5 110.5C24.1492 105.099 24.759 92.3769 27.8772 83.8068C30.4805 76.6559 36.4165 60.99 52.6653 47.9971C75.0504 30.0854 100.883 30.1542 108.092 30.4022Z" fill="#CA6D92"/>
</g>
<path d="M170.621 42.9831C170.078 42.5009 169.534 42.06 168.991 41.6053C171.337 40.1173 173.31 38.0643 174.569 35.6531C177.773 29.4529 176.557 22.5362 173.11 16.4875C169.52 10.2184 163.527 4.87249 157.505 2.21329C151.712 -0.34947 144.832 -0.804154 138.91 1.46926C133.618 3.49466 127.139 8.93708 127.439 14.9306C127.768 21.2411 136.522 27.6479 142.215 22.3846C143.96 20.7726 144.718 18.2512 144.145 15.9915C144.031 15.5644 143.759 15.0546 143.287 15.096C142.901 15.1373 142.687 15.5506 142.486 15.8675C142.014 16.6391 141.156 17.1765 140.226 17.2729C138.267 17.4934 137.037 15.8262 136.464 14.2555C135.749 12.3265 136.65 10.6593 138.596 9.74998C140.884 8.68906 142.987 9.74999 144.904 11.0038C147.965 13.0017 150.353 16.3498 150.067 20.0423C149.824 23.3216 148.179 26.3666 145.819 28.7778C127.682 22.7567 111.476 24.975 108.658 25.4021C101.449 25.1541 75.6171 25.0852 53.232 42.9969C36.9831 55.9898 31.0471 71.6557 28.4439 78.8066C25.3257 87.3767 20.2622 101.32 26.613 106.721C32.0484 111.351 44.564 108.843 50.4571 102.932C56.5647 96.8148 59.2252 88.3136 61.6854 80.1569C72.1985 88.6443 87.0742 91.8546 100.348 88.4927C113.622 85.1308 124.936 75.2794 129.742 62.9065C128.383 72.6753 133.16 83.009 141.614 88.5616C150.053 94.128 161.782 94.6654 170.736 89.9119C167.131 95.5334 167.861 103.415 172.452 108.32C177.044 113.238 185.097 114.768 191.276 111.916C192.477 108.141 193.793 102.822 194.079 96.3877C195.524 65.7448 172.467 44.609 170.621 42.9831Z" fill="white"/>
<g style="mix-blend-mode:multiply">
<path d="M81.8216 299.836C83.4684 299.836 84.8034 298.501 84.8034 296.854C84.8034 295.207 83.4684 293.872 81.8216 293.872C80.1748 293.872 78.8398 295.207 78.8398 296.854C78.8398 298.501 80.1748 299.836 81.8216 299.836Z" fill="#BF6D92" fill-opacity="0.5"/>
</g>
<g style="mix-blend-mode:multiply">
<path d="M78.5069 302.317C78.5069 303.316 77.6887 304.134 76.6901 304.134C75.6915 304.134 74.8733 303.316 74.8733 302.317C74.8733 301.319 75.6915 300.501 76.6901 300.501C77.7025 300.487 78.5069 301.305 78.5069 302.317Z" fill="#BF6D92" fill-opacity="0.5"/>
</g>
<g style="mix-blend-mode:multiply">
<path d="M32.5042 207.51C34.0436 206.942 35.7633 207.746 36.3181 209.286C36.8867 210.825 36.0823 212.545 34.5429 213.1C33.0035 213.668 31.2837 212.864 30.729 211.324C30.1603 209.785 30.9509 208.079 32.5042 207.51Z" fill="#BF6D92" fill-opacity="0.5"/>
</g>
<g style="mix-blend-mode:multiply">
<path d="M39.7852 211.533C40.7283 211.186 41.7684 211.672 42.1152 212.615C42.4619 213.558 41.9765 214.598 41.0334 214.945C40.0903 215.291 39.0501 214.806 38.7034 213.863C38.3567 212.92 38.8421 211.88 39.7852 211.533Z" fill="#BF6D92" fill-opacity="0.5"/>
</g>
<g style="mix-blend-mode:multiply">
<path d="M141.083 238.397C141.811 238.397 142.4 237.807 142.4 237.079C142.4 236.352 141.811 235.762 141.083 235.762C140.355 235.762 139.765 236.352 139.765 237.079C139.765 237.807 140.355 238.397 141.083 238.397Z" fill="#BF6D92" fill-opacity="0.5"/>
</g>
<g style="mix-blend-mode:multiply">
<path d="M61.5049 194.737C61.5049 195.472 60.9086 196.054 60.1874 196.054C59.4524 196.054 58.8699 195.458 58.8699 194.737C58.8699 194.016 59.4662 193.419 60.1874 193.419C60.9086 193.405 61.5049 194.002 61.5049 194.737Z" fill="#BF6D92" fill-opacity="0.5"/>
</g>
<g style="mix-blend-mode:multiply">
<path d="M68.6601 112.884C69.3877 112.884 69.9776 112.294 69.9776 111.567C69.9776 110.839 69.3877 110.249 68.6601 110.249C67.9324 110.249 67.3425 110.839 67.3425 111.567C67.3425 112.294 67.9324 112.884 68.6601 112.884Z" fill="#BF6D92" fill-opacity="0.5"/>
</g>
<g style="mix-blend-mode:multiply">
<path d="M66.3438 108.085C66.3438 109.084 65.5256 109.902 64.527 109.902C63.5285 109.902 62.7102 109.084 62.7102 108.085C62.7102 107.087 63.5285 106.269 64.527 106.269C65.5394 106.269 66.3438 107.087 66.3438 108.085Z" fill="#BF6D92" fill-opacity="0.5"/>
</g>
<path d="M117.561 53.0127C113.997 58.158 109.864 63.6917 103.748 65.0508C97.4515 66.4515 90.1982 61.8748 88.5894 55.62C85.9821 61.75 79.5053 66.0355 72.8344 66.0216C66.1635 66.0216 59.7007 61.7223 57.1072 55.5923C56.9269 62.7763 60.7131 68.9895 67.4534 71.4859C74.1797 73.9823 82.39 71.7772 86.9529 66.2297C89.9763 70.0713 95.3574 72.6786 100.184 71.9158C105.01 71.1531 109.323 68.2268 112.444 64.4544C115.564 60.696 116.063 57.6587 117.561 53.0127Z" fill="#C9D2E7"/>
<path d="M192.106 86.7977C189.596 88.0875 185.615 85.1473 186.281 82.4152C181.552 86.2013 173.966 85.7159 169.75 81.375C172.204 87.0335 179.818 90.9445 185.449 88.4065C186.558 90.889 189.291 92.5394 191.995 92.3729C192.813 91.6656 192.536 87.7824 192.106 86.7977Z" fill="#C9D2E7"/>
<path d="M115.786 59.3644C114.968 58.9622 114.635 57.9636 115.037 57.1454L117.159 52.8599C117.561 52.0417 118.56 51.7088 119.378 52.111C120.196 52.5132 120.529 53.5117 120.127 54.33L118.005 58.6155C117.603 59.4337 116.604 59.7666 115.786 59.3644Z" fill="#F74217"/>
<path d="M157.406 24.609C156.588 24.2068 156.255 23.2083 156.657 22.39L158.779 18.1045C159.181 17.2863 160.18 16.9534 160.998 17.3556C161.817 17.7578 162.149 18.7564 161.747 19.5746L159.625 23.8601C159.209 24.6783 158.211 25.0251 157.406 24.609Z" fill="#F74217"/>
<path d="M39.1055 74.0517C39.591 74.8977 39.2997 75.9933 38.4537 76.4926L33.988 79.0583C33.142 79.5437 32.0463 79.2525 31.5471 78.4065C31.0617 77.5605 31.3529 76.4648 32.1989 75.9656L36.6646 73.3998C37.5245 72.9144 38.6201 73.2057 39.1055 74.0517Z" fill="#F74217"/>
<path d="M64.097 76.0902C64.5824 76.9362 64.2912 78.0318 63.4452 78.5311L58.9794 81.0968C58.1334 81.5822 57.0378 81.291 56.5385 80.445C56.0531 79.599 56.3444 78.5033 57.1904 78.004L61.6561 75.4383C62.516 74.9391 63.6116 75.2303 64.097 76.0902Z" fill="#F74217"/>
<path d="M118.518 36.1899C118.033 37.0359 116.937 37.3271 116.077 36.8417L111.625 34.2621C110.779 33.7767 110.488 32.6811 110.974 31.8212C111.459 30.9752 112.555 30.684 113.414 31.1694L117.866 33.749C118.712 34.2483 119.004 35.3439 118.518 36.1899Z" fill="#C9D2E7"/>
<path d="M171.65 32.9858C171.164 33.8318 170.069 34.123 169.209 33.6376L164.757 31.058C163.911 30.5726 163.62 29.477 164.105 28.6171C164.591 27.7711 165.686 27.4799 166.546 27.9653L170.998 30.5449C171.844 31.0303 172.149 32.1259 171.65 32.9858Z" fill="#C9D2E7"/>
<path d="M93.2216 26.731C93.2216 27.6325 92.4866 28.3537 91.599 28.3537C90.6975 28.3537 89.9763 27.6186 89.9763 26.731C89.9763 25.8296 90.7114 25.1084 91.599 25.1084C92.5004 25.1084 93.2216 25.8296 93.2216 26.731Z" fill="#C9D2E7"/>
<path d="M98.4501 42.0289C98.4501 42.9304 97.7151 43.6516 96.8275 43.6516C95.9399 43.6516 95.2048 42.9165 95.2048 42.0289C95.2048 41.1274 95.9399 40.4062 96.8275 40.4062C97.729 40.4062 98.4501 41.1413 98.4501 42.0289Z" fill="#F74217"/>
<path d="M77.9658 76.3263C77.9658 77.2277 77.2307 77.9489 76.3431 77.9489C75.4416 77.9489 74.7205 77.2139 74.7205 76.3263C74.7205 75.4248 75.4555 74.7036 76.3431 74.7036C77.2446 74.7036 77.9658 75.4248 77.9658 76.3263Z" fill="#F74217"/>
<path d="M61.5314 51.3482C61.5314 52.2497 60.7964 52.9709 59.9088 52.9709C59.0073 52.9709 58.2861 52.2358 58.2861 51.3482C58.2861 50.4468 59.0212 49.7256 59.9088 49.7256C60.7964 49.7256 61.5314 50.4468 61.5314 51.3482Z" fill="#F74217"/>
<path d="M69.1729 41.7789C68.3546 41.3767 68.0218 40.3782 68.424 39.5599L70.5459 35.2744C70.9481 34.4562 71.9467 34.1233 72.7649 34.5255C73.5832 34.9277 73.916 35.9263 73.5138 36.7445L71.3919 41.03C70.9897 41.8483 69.9911 42.1811 69.1729 41.7789Z" fill="#F74217"/>
<path d="M81.7798 59.628C80.9616 59.2258 80.6287 58.2273 81.0309 57.409L83.1528 53.1236C83.555 52.3053 84.5536 51.9725 85.3718 52.3747C86.1901 52.7769 86.5229 53.7754 86.1208 54.5937L83.9988 58.8791C83.5828 59.6835 82.5842 60.0302 81.7798 59.628Z" fill="#F74217"/>
<path d="M51.7675 64.3158C51.2821 65.1618 50.1864 65.4531 49.3266 64.9677L44.8747 62.3881C44.0287 61.9027 43.7374 60.8071 44.2228 59.9472C44.7083 59.1012 45.8039 58.8099 46.6637 59.2954L51.1156 61.8749C51.9616 62.3604 52.2529 63.456 51.7675 64.3158Z" fill="#C9D2E7"/>
<path d="M144.231 58.075C144.231 58.9765 143.496 59.6976 142.608 59.6976C141.707 59.6976 140.986 58.9626 140.986 58.075C140.986 57.1735 141.721 56.4523 142.608 56.4523C143.51 56.4385 144.231 57.1735 144.231 58.075Z" fill="#F74217"/>
<path d="M96.4671 82.5526C95.732 82.0117 95.5933 80.9716 96.1342 80.2365L99.0051 76.4087C99.546 75.6737 100.586 75.535 101.321 76.0759C102.056 76.6168 102.195 77.6569 101.654 78.392L98.7832 82.2198C98.2423 82.9548 97.2021 83.1074 96.4671 82.5526Z" fill="#C9D2E7"/>
<path d="M192.689 106.283C192.203 107.129 191.108 107.42 190.248 106.934L185.796 104.355C184.95 103.869 184.659 102.774 185.144 101.914C185.629 101.068 186.725 100.777 187.585 101.262L192.037 103.842C192.883 104.327 193.174 105.437 192.689 106.283Z" fill="#F74217"/>
<path d="M189.124 82.7198C189.124 83.6213 188.389 84.3425 187.502 84.3425C186.6 84.3425 185.879 83.6074 185.879 82.7198C185.879 81.8183 186.614 81.0972 187.502 81.0972C188.403 81.0972 189.124 81.8322 189.124 82.7198Z" fill="#F74217"/>
<path d="M150.819 78.1017C150.819 79.0031 150.084 79.7243 149.196 79.7243C148.295 79.7243 147.573 78.9893 147.573 78.1017C147.573 77.2002 148.309 76.479 149.196 76.479C150.098 76.479 150.819 77.214 150.819 78.1017Z" fill="#F74217"/>
<path d="M160.291 68.5458C159.389 68.5319 158.682 67.7969 158.696 66.8954C158.71 65.9939 159.445 65.2866 160.346 65.3005C161.248 65.3144 161.955 66.0494 161.941 66.9509C161.927 67.8523 161.192 68.5597 160.291 68.5458Z" fill="#C9D2E7"/>
<path d="M155.936 36.6064C155.035 36.5925 154.328 35.8574 154.342 34.956C154.355 34.0545 155.09 33.3472 155.992 33.361C156.893 33.3749 157.601 34.11 157.587 35.0114C157.573 35.899 156.838 36.6202 155.936 36.6064Z" fill="#C9D2E7"/>
<path d="M119.337 74.024C119.753 73.2197 120.751 72.8868 121.569 73.3029L125.827 75.4803C126.632 75.8963 126.964 76.8949 126.548 77.7132C126.132 78.5175 125.134 78.8504 124.315 78.4343L120.058 76.2569C119.253 75.8409 118.92 74.8284 119.337 74.024Z" fill="#F74217"/>
<path d="M165.131 42.4863C165.769 41.8483 166.823 41.8483 167.475 42.4863L170.845 45.8703C171.483 46.5082 171.483 47.5623 170.845 48.2141C170.207 48.8521 169.153 48.8521 168.501 48.2141L165.131 44.8301C164.493 44.1922 164.493 43.1381 165.131 42.4863Z" fill="#F74217"/>
<path d="M181.053 56.9513C181.053 57.8527 180.318 58.5739 179.43 58.5739C178.529 58.5739 177.807 57.8389 177.807 56.9513C177.807 56.0498 178.542 55.3286 179.43 55.3286C180.331 55.3286 181.053 56.0498 181.053 56.9513Z" fill="#F74217"/>
<path d="M134.703 12.7511C134.703 13.6525 133.968 14.3737 133.08 14.3737C132.179 14.3737 131.458 13.6387 131.458 12.7511C131.458 11.8496 132.193 11.1284 133.08 11.1284C133.982 11.1284 134.703 11.8496 134.703 12.7511Z" fill="#F74217"/>
<path d="M164.479 8.16025C164.479 9.06173 163.744 9.78289 162.857 9.78289C161.955 9.78289 161.234 9.04786 161.234 8.16025C161.234 7.25878 161.969 6.5376 162.857 6.5376C163.758 6.5376 164.479 7.27265 164.479 8.16025Z" fill="#F74217"/>
<path d="M184.686 72.0543C183.868 71.6521 183.535 70.6535 183.937 69.8353L186.059 65.5498C186.461 64.7316 187.46 64.3987 188.278 64.8009C189.096 65.2031 189.429 66.2017 189.027 67.0199L186.905 71.3054C186.489 72.1236 185.49 72.4565 184.686 72.0543Z" fill="#C9D2E7"/>
<path d="M171.483 91.7346C171.386 92.7055 170.499 93.4266 169.528 93.3295L164.41 92.7887C163.439 92.6916 162.718 91.804 162.815 90.8332C162.912 89.8623 163.8 89.1412 164.771 89.2383L169.888 89.7791C170.859 89.8762 171.58 90.7638 171.483 91.7346Z" fill="#C9D2E7"/>
<path d="M150.403 5.60914C150.306 6.57996 149.418 7.30114 148.447 7.20405L143.329 6.66317C142.359 6.56609 141.638 5.67848 141.735 4.70767C141.832 3.73685 142.719 3.01568 143.69 3.11277L148.808 3.65365C149.792 3.75073 150.514 4.63833 150.403 5.60914Z" fill="#C9D2E7"/>
<path d="M140.958 46.91C140.112 46.4107 139.835 45.3012 140.348 44.4691L142.983 40.045C143.482 39.199 144.592 38.9216 145.424 39.4347C146.27 39.934 146.547 41.0435 146.034 41.8756L143.399 46.2998C142.9 47.1458 141.804 47.4232 140.958 46.91Z" fill="#C9D2E7"/>
<path d="M41.2692 103.523C40.7838 104.369 39.6881 104.661 38.8283 104.175L34.3764 101.596C33.5304 101.11 33.2391 100.015 33.7246 99.1547C34.21 98.3087 35.3056 98.0175 36.1655 98.5029L40.6173 101.082C41.4633 101.582 41.7546 102.677 41.2692 103.523Z" fill="#F74217"/>
<path d="M49.8678 90.6112C48.9663 90.5974 48.259 89.8623 48.2729 88.9608C48.2868 88.0594 49.0218 87.3521 49.9233 87.3659C50.8248 87.3798 51.5321 88.1148 51.5182 89.0163C51.5043 89.9039 50.7554 90.6251 49.8678 90.6112Z" fill="#C9D2E7"/>
<path d="M111.931 69.1832C111.931 70.0847 111.196 70.8058 110.308 70.8058C109.406 70.8058 108.685 70.0708 108.685 69.1832C108.685 68.2817 109.42 67.5605 110.308 67.5605C111.209 67.5605 111.931 68.2817 111.931 69.1832Z" fill="#F74217"/>
<g style="mix-blend-mode:multiply" opacity="0.3">
<path d="M164.743 116.099C164.479 121.064 160.388 124.892 155.603 124.643C150.818 124.393 147.157 120.149 147.421 115.184C147.684 110.219 151.775 106.391 156.56 106.641C161.345 106.904 165.006 111.134 164.743 116.099Z" fill="#CA6D92"/>
</g>
<path d="M164.618 115.422C164.396 119.721 160.721 123.022 156.422 122.786C152.122 122.564 148.822 118.889 149.057 114.59C149.279 110.29 152.954 106.989 157.254 107.225C161.553 107.447 164.854 111.122 164.618 115.422Z" fill="#730F03"/>
<g style="mix-blend-mode:overlay" opacity="0.3">
<path d="M152.471 112.422C152.767 115.87 156.368 114.793 157.049 111.618C157.748 108.44 152.143 108.457 152.471 112.422Z" fill="#FFB4B5"/>
</g>
<path d="M131.569 293.705C134.107 295.161 137.241 296.701 140.265 295.98C143.302 295.245 144.855 292.402 145.743 289.642C144.675 289.642 143.607 289.642 142.525 289.642C143.427 292.138 145.299 294.468 147.795 295.494C151.928 297.2 156.741 294.842 159.251 291.431C160.527 289.697 157.628 288.033 156.38 289.753C156.588 289.461 156.186 289.975 156.117 290.058C155.895 290.307 155.659 290.529 155.409 290.751C154.785 291.32 154.05 291.791 153.274 292.138C151.817 292.79 150.153 292.998 148.711 292.249C147.754 291.75 147.005 290.931 146.436 290.03C146.214 289.669 146.02 289.295 145.826 288.921C145.576 288.449 145.881 289.115 145.757 288.754C145.202 287.229 143.066 287.131 142.539 288.754C142.012 290.404 141.138 292.568 139.155 292.804C137.116 293.053 134.953 291.791 133.261 290.821C131.389 289.753 129.71 292.637 131.569 293.705Z" fill="white"/>
<path d="M65.1652 296.05C67.7032 297.506 70.8376 299.045 73.861 298.324C76.8982 297.589 78.4515 294.746 79.3391 291.986C78.2712 291.986 77.2033 291.986 76.1355 291.986C77.0369 294.482 78.9092 296.812 81.4056 297.839C85.5385 299.544 90.351 297.187 92.8612 293.775C94.1371 292.041 91.2386 290.377 89.9904 292.097C90.1984 291.806 89.7962 292.319 89.7269 292.402C89.505 292.652 89.2692 292.874 89.0196 293.095C88.3955 293.664 87.6604 294.136 86.8838 294.482C85.4275 295.134 83.7633 295.342 82.3209 294.593C81.364 294.094 80.6151 293.276 80.0464 292.374C79.8245 292.014 79.6304 291.639 79.4362 291.265C79.1866 290.793 79.4917 291.459 79.3669 291.098C78.8121 289.573 76.6763 289.476 76.1632 291.098C75.6362 292.749 74.7624 294.912 72.7792 295.148C70.7405 295.398 68.577 294.136 66.885 293.165C64.9849 292.097 63.3068 294.982 65.1652 296.05Z" fill="white"/>
<path d="M32.0879 193.725C34.612 192.755 37.3858 193.198 39.2442 195.251C41.1581 197.373 41.2136 200.438 39.7435 202.796C38.9529 204.058 40.2566 205.583 41.6296 205.236C44.2647 204.571 47.1633 205.32 48.9107 207.483C50.8385 209.869 50.5611 213.128 48.9662 215.596C47.7874 217.399 50.6721 219.064 51.837 217.275C54.2086 213.641 54.2225 208.842 51.4765 205.403C48.9246 202.199 44.653 201.048 40.742 202.033C41.3661 202.851 41.9902 203.669 42.6282 204.474C44.8194 200.937 44.5421 196.36 41.8377 193.171C39.2581 190.133 34.8894 189.079 31.2003 190.508C29.2171 191.284 30.0769 194.502 32.0879 193.725Z" fill="white"/>
<path d="M187.446 217.635C184.853 215.804 183.549 212.49 184.423 209.397C185.283 206.36 187.945 204.488 190.983 204.044C192.092 203.877 192.439 202.435 191.981 201.603C190.719 199.328 190.678 196.18 193.008 194.557C195.227 193.018 198.056 193.545 200.122 195.029C201.87 196.277 203.534 193.393 201.8 192.158C198.541 189.828 193.937 189.606 190.705 192.144C187.266 194.849 187.072 199.661 189.083 203.295C189.415 202.477 189.748 201.658 190.081 200.854C185.823 201.478 182.121 204.668 181.108 208.898C180.026 213.419 182.037 217.899 185.754 220.534C187.515 221.754 189.18 218.869 187.446 217.635Z" fill="white"/>
<g style="mix-blend-mode:multiply" opacity="0.3">
<path d="M110.791 210.583C116.199 210.583 120.583 206.199 120.583 200.791C120.583 195.384 116.199 191 110.791 191C105.384 191 101 195.384 101 200.791C101 206.199 105.384 210.583 110.791 210.583Z" fill="#BF6D92" fill-opacity="0.5"/>
</g>
<path d="M113.859 209.037C119.266 209.037 123.65 204.653 123.65 199.245C123.65 193.838 119.266 189.454 113.859 189.454C108.451 189.454 104.067 193.838 104.067 199.245C104.067 204.653 108.451 209.037 113.859 209.037Z" fill="#C9D2E7"/>
<g opacity="0.54">
<g style="mix-blend-mode:multiply">
<path d="M123.65 199.245C123.65 204.654 119.267 209.037 113.859 209.037C108.45 209.037 104.067 204.654 104.067 199.245C104.067 198.469 104.164 197.72 104.331 196.999C105.357 201.312 109.226 204.529 113.859 204.529C118.491 204.529 122.36 201.326 123.386 196.999C123.553 197.72 123.65 198.469 123.65 199.245Z" fill="#BF6D92" fill-opacity="0.5"/>
</g>
</g>
<path d="M121.084 222.364C124.912 226.192 124.912 232.378 121.084 236.206C117.256 240.033 111.071 240.033 107.243 236.206C103.415 232.378 103.415 226.192 107.243 222.364C111.071 218.537 117.27 218.537 121.084 222.364Z" fill="#C9D2E7"/>
<g opacity="0.54">
<path d="M123.955 229.285C123.955 234.694 119.572 239.077 114.163 239.077C108.755 239.077 104.372 234.694 104.372 229.285C104.372 228.509 104.469 227.76 104.636 227.039C105.662 231.352 109.531 234.569 114.163 234.569C118.796 234.569 122.665 231.366 123.691 227.039C123.872 227.746 123.955 228.509 123.955 229.285Z" fill="#C9D2E7"/>
</g>
<g style="mix-blend-mode:multiply" opacity="0.3">
<path d="M118.017 223.91C121.845 227.738 121.845 233.924 118.017 237.751C114.189 241.579 108.004 241.579 104.176 237.751C100.348 233.924 100.348 227.738 104.176 223.91C108.004 220.083 114.203 220.083 118.017 223.91Z" fill="#BF6D92" fill-opacity="0.5"/>
</g>
<path d="M121.084 222.364C124.912 226.192 124.912 232.378 121.084 236.206C117.256 240.033 111.071 240.033 107.243 236.206C103.415 232.378 103.415 226.192 107.243 222.364C111.071 218.537 117.27 218.537 121.084 222.364Z" fill="#C9D2E7"/>
<g opacity="0.54">
<g style="mix-blend-mode:multiply">
<path d="M123.955 229.285C123.955 234.694 119.572 239.077 114.163 239.077C108.755 239.077 104.372 234.694 104.372 229.285C104.372 228.509 104.469 227.76 104.636 227.039C105.662 231.352 109.531 234.569 114.163 234.569C118.796 234.569 122.665 231.366 123.691 227.039C123.872 227.746 123.955 228.509 123.955 229.285Z" fill="#BF6D92" fill-opacity="0.5"/>
</g>
</g>
<path d="M471.759 71.8584C479.567 85.0892 480.164 103.493 469.804 114.838C474.394 130.676 488.069 139.33 504.531 140.148C497.957 149.357 486.488 154.849 475.185 154.211C463.882 153.573 453.12 146.805 447.628 136.903C451.261 148.594 458.903 158.996 468.958 165.972C460.748 168.995 451.22 168.288 443.55 164.058C439.542 161.839 436.089 158.691 433.426 154.974C426.88 165.556 417.824 174.474 407.075 180.909C407.339 181.131 407.533 181.408 407.658 181.741C407.727 181.935 407.755 182.143 407.769 182.337C424.467 186.012 443.814 195.429 450.429 198.037C455.366 199.978 460.359 202.059 464.395 205.498C468.431 208.938 471.426 214 471.108 219.298C470.678 226.301 464.423 231.932 457.613 233.652C450.804 235.371 443.592 233.957 436.865 231.932C433.69 230.961 427.421 228.576 420.209 225.247C426.034 236.966 431.859 248.658 437.337 258.935C442.579 268.767 436.838 281.236 425.812 282.844C425.396 282.914 424.98 282.955 424.564 282.983C424.134 283.011 423.718 283.025 423.302 283.025H423.135C422.913 283.025 422.692 283.011 422.47 282.997C422.192 282.983 421.901 282.969 421.624 282.941C421.388 282.928 421.166 282.886 420.944 282.858C420.667 282.817 420.389 282.789 420.112 282.733C419.876 282.692 419.654 282.65 419.432 282.595C419.169 282.525 418.892 282.47 418.628 282.401C418.614 282.401 418.586 282.387 418.573 282.387C419.363 292.039 420.14 301.678 420.93 311.331C421.277 315.602 421.61 319.957 420.597 324.118C419.585 328.278 416.95 332.287 412.956 333.826C408.864 335.393 404.107 334.09 400.599 331.468C397.09 328.847 394.621 325.089 392.43 321.302C385.759 309.805 380.891 297.268 378.02 284.287C372.223 283.579 366.703 280.93 362.446 276.936C360.005 292.885 354.568 308.377 346.483 322.343C344.277 326.129 341.823 329.887 338.314 332.508C334.805 335.13 330.048 336.433 325.957 334.866C321.963 333.327 319.327 329.319 318.315 325.158C317.289 320.997 317.635 316.643 317.982 312.371L321.436 270.016L321.297 269.946C321.2 270.085 321.103 270.21 321.006 270.349C320.964 270.404 320.922 270.473 320.881 270.529C320.52 271 320.132 271.444 319.716 271.874L319.508 272.082C319.092 272.484 318.648 272.873 318.19 273.233C318.121 273.289 318.038 273.358 317.954 273.414C317.469 273.774 316.984 274.107 316.47 274.412C316.401 274.454 316.346 274.481 316.276 274.523C315.735 274.842 315.181 275.119 314.598 275.369C314.016 275.619 313.419 275.827 312.823 275.993C312.754 276.021 312.684 276.049 312.615 276.062C312.032 276.215 311.45 276.34 310.867 276.423L310.576 276.465C309.994 276.548 309.411 276.589 308.829 276.589C308.787 276.589 308.732 276.603 308.69 276.603C308.621 276.603 308.565 276.589 308.496 276.589C307.969 276.589 307.428 276.562 306.901 276.492C300.951 275.716 295.695 271.014 294.267 265.175C292.214 256.826 297.456 248.602 302.421 241.612C306.097 236.439 309.98 230.379 313.932 223.999C304.28 228.853 295.265 232.376 291.215 233.596C284.489 235.607 277.277 237.036 270.468 235.316C263.658 233.596 257.403 227.979 256.973 220.962C256.654 215.664 259.65 210.602 263.686 207.162C267.722 203.723 272.714 201.656 277.652 199.701C284.822 196.872 306.984 186.026 324.501 183.211C324.362 183.155 324.237 183.114 324.098 183.058C323.072 182.656 322.573 181.491 322.975 180.465C323.114 180.104 323.363 179.813 323.654 179.591C312.878 172.657 303.933 163.198 297.72 152.048C295.487 154.489 292.88 156.569 289.981 158.164C282.312 162.394 272.798 163.115 264.573 160.078C274.628 153.102 282.27 142.7 285.904 131.009C280.425 140.911 269.649 147.679 258.346 148.317C247.043 148.969 235.574 143.477 229 134.254C245.476 133.422 259.137 124.754 263.727 108.916C253.367 97.5711 253.964 79.1672 261.772 65.9364C269.025 53.6487 281.202 45.1332 294.017 38.712C294.558 30.6403 298.857 25.4395 304.71 30.0578L304.848 31.6527C302.727 30.8206 301.589 31.2228 301.589 31.2228C300.618 31.5973 298.649 32.471 297.803 36.8813C300.258 35.7302 302.782 34.6484 305.362 33.7747C305.292 33.3863 305.223 33.0119 305.14 32.6236L304.779 30.1411C305.93 30.8622 306.846 31.8608 307.567 33.0674C310.978 32.0827 314.473 31.5418 318.024 31.7498C323.336 32.0688 328.758 34.5375 332.017 38.5871C340.38 34.6623 349.326 32.0549 358.521 31.0703C376.481 29.1425 393.054 32.3601 406.992 40.085C409.613 38.6842 412.581 37.8521 415.521 37.6718C418.448 37.4915 421.346 37.8382 424.203 38.5178L440.984 45.3551C447.489 48.7114 453.785 52.6362 459.305 57.3378C462.578 60.5439 469.592 67.8423 471.468 71.3868C471.551 71.5394 471.662 71.692 471.759 71.8584Z" fill="#8D1B24"/>
<path d="M329.712 36.6197C327.923 29.505 320.379 24.9976 313.056 24.5538C305.733 24.11 298.619 26.9115 291.989 30.0597C278.107 36.6474 264.598 45.4957 256.79 58.7265C248.982 71.9573 248.386 90.3612 258.746 101.706C254.155 117.544 240.494 126.212 224.018 127.044C230.592 136.267 242.062 141.759 253.365 141.107C264.668 140.455 275.444 133.701 280.922 123.799C277.288 135.49 269.647 145.892 259.592 152.868C267.816 155.905 277.33 155.184 284.999 150.954C292.669 146.724 298.369 139.068 300.2 130.511C297.162 134.63 302.779 143.534 307.3 145.933C311.808 148.333 317.563 147.265 321.821 144.45C326.079 141.634 329.116 137.335 331.82 132.994C342.957 115.062 349.989 94.6051 352.221 73.6216C353.067 65.6887 353.192 57.4506 350.405 49.9753C347.617 42.4862 337.59 37.9233 329.712 36.6197Z" fill="white"/>
<path d="M393.911 42.5552C395.7 35.4405 403.245 30.9332 410.567 30.4894C417.89 30.0456 425.005 32.8471 431.634 35.9953C445.517 42.5829 459.025 51.4312 466.833 64.6621C474.641 77.8929 475.237 96.2968 464.877 107.641C469.468 123.48 483.129 132.148 499.605 132.98C493.031 142.202 481.562 147.695 470.259 147.043C458.956 146.405 448.179 139.637 442.701 129.734C446.335 141.426 453.977 151.827 464.031 158.803C455.807 161.841 446.293 161.12 438.624 156.89C430.954 152.66 425.254 145.004 423.424 136.447C426.461 140.566 420.844 149.47 416.323 151.869C411.802 154.268 406.06 153.2 401.802 150.385C397.544 147.57 394.507 143.27 391.803 138.929C380.666 120.997 373.635 100.541 371.402 79.5572C370.556 71.6242 370.431 63.3861 373.219 55.9109C376.02 48.4217 386.033 43.8589 393.911 42.5552Z" fill="white"/>
<path d="M331.376 174.032C326.162 187.235 320.892 200.688 319.782 214.848C318.673 229.008 322.32 244.222 332.652 253.958C340.308 261.184 350.848 264.693 361.319 265.83C372.428 267.022 384.133 265.636 393.675 259.838C421.746 242.808 407.433 198.136 393.134 176.223C386.006 165.309 374.287 157.279 361.305 158.416C348.31 159.553 336.161 161.911 331.376 174.032Z" fill="url(#paint6_linear_196_2998)"/>
<g style="mix-blend-mode:multiply" opacity="0.3">
<path d="M365.486 184.932C408.754 184.932 443.831 150.409 443.831 107.822C443.831 65.235 408.754 30.7114 365.486 30.7114C322.217 30.7114 287.141 65.235 287.141 107.822C287.141 150.409 322.217 184.932 365.486 184.932Z" fill="#CA6D92"/>
</g>
<path d="M361.486 184.932C404.754 184.932 439.831 150.409 439.831 107.822C439.831 65.235 404.754 30.7114 361.486 30.7114C318.217 30.7114 283.141 65.235 283.141 107.822C283.141 150.409 318.217 184.932 361.486 184.932Z" fill="url(#paint7_linear_196_2998)"/>
<path opacity="0.5" d="M417.377 127.432C418.403 135.629 411.76 143.215 402.537 144.366C393.315 145.517 385.007 139.817 383.981 131.621C382.955 123.424 389.598 115.838 398.821 114.687C408.043 113.522 416.351 119.236 417.377 127.432Z" fill="#F4976B"/>
<path d="M406.324 135.712C406.31 135.712 406.282 135.712 406.268 135.712C405.797 135.685 405.45 135.269 405.491 134.811L406.102 126.143C406.129 125.671 406.532 125.311 407.003 125.352C407.475 125.38 407.821 125.796 407.78 126.254L407.17 134.922C407.128 135.366 406.767 135.712 406.324 135.712Z" fill="url(#paint8_linear_196_2998)"/>
<path d="M413.633 135.74C413.258 135.74 412.911 135.49 412.814 135.116L410.609 126.711C410.484 126.253 410.762 125.796 411.22 125.685C411.663 125.56 412.135 125.837 412.246 126.281L414.451 134.686C414.576 135.143 414.298 135.601 413.841 135.712C413.771 135.74 413.702 135.74 413.633 135.74Z" fill="url(#paint9_linear_196_2998)"/>
<path d="M399.292 134.88C399.209 134.88 399.112 134.866 399.029 134.838C398.585 134.686 398.349 134.214 398.501 133.77L401.261 125.532C401.414 125.089 401.885 124.853 402.329 125.005C402.773 125.158 403.009 125.63 402.856 126.073L400.096 134.311C399.972 134.658 399.639 134.88 399.292 134.88Z" fill="url(#paint10_linear_196_2998)"/>
<path opacity="0.5" d="M326.12 129.153C327.147 137.349 320.503 144.935 311.281 146.086C302.058 147.237 293.75 141.537 292.724 133.341C291.698 125.144 298.341 117.558 307.564 116.407C316.787 115.242 325.094 120.956 326.12 129.153Z" fill="#F4976B"/>
<path d="M315.081 137.433C315.067 137.433 315.039 137.433 315.025 137.433C314.554 137.405 314.207 136.989 314.249 136.531L314.859 127.863C314.887 127.392 315.289 127.031 315.76 127.073C316.232 127.1 316.579 127.516 316.537 127.974L315.927 136.642C315.885 137.086 315.511 137.433 315.081 137.433Z" fill="url(#paint11_linear_196_2998)"/>
<path d="M322.376 137.46C322.001 137.46 321.655 137.21 321.558 136.836L319.352 128.431C319.228 127.974 319.505 127.516 319.963 127.405C320.406 127.28 320.878 127.558 320.989 128.001L323.194 136.406C323.319 136.864 323.042 137.321 322.584 137.432C322.528 137.46 322.459 137.46 322.376 137.46Z" fill="url(#paint12_linear_196_2998)"/>
<path d="M308.049 136.6C307.966 136.6 307.869 136.586 307.786 136.559C307.342 136.406 307.106 135.934 307.259 135.491L310.019 127.253C310.171 126.809 310.643 126.573 311.087 126.726C311.53 126.878 311.766 127.35 311.614 127.794L308.854 136.032C308.729 136.378 308.396 136.6 308.049 136.6Z" fill="url(#paint13_linear_196_2998)"/>
<path d="M370.847 263.888C372.872 281.543 378.572 298.768 387.476 314.148C389.667 317.934 392.136 321.693 395.645 324.314C399.153 326.935 403.91 328.239 408.002 326.672C411.996 325.132 414.631 321.124 415.643 316.964C416.656 312.803 416.323 308.448 415.976 304.176C413.674 275.995 411.386 247.814 409.083 219.632C387.642 225.416 368.323 241.822 370.847 263.888Z" fill="url(#paint14_linear_196_2998)"/>
<path d="M358.157 264.914C356.133 282.569 350.432 299.794 341.529 315.174C339.337 318.961 336.869 322.719 333.36 325.34C329.851 327.962 325.094 329.265 321.003 327.698C317.009 326.159 314.374 322.151 313.361 317.99C312.349 313.829 312.682 309.474 313.028 305.203C315.331 277.021 317.619 248.84 319.921 220.659C341.362 226.456 360.681 242.849 358.157 264.914Z" fill="url(#paint15_linear_196_2998)"/>
<path d="M445.475 190.882C450.412 192.838 455.391 194.904 459.441 198.344C463.477 201.783 466.472 206.845 466.153 212.143C465.723 219.161 459.469 224.777 452.659 226.497C445.849 228.217 438.638 226.788 431.911 224.777C420.234 221.269 367.269 198.579 376.949 180.175C386.297 162.368 434.255 186.444 445.475 190.882Z" fill="url(#paint16_linear_196_2998)"/>
<path d="M272.67 192.505C267.733 194.46 262.754 196.527 258.718 199.966C254.682 203.405 251.687 208.468 252.006 213.765C252.436 220.783 258.69 226.4 265.5 228.12C272.31 229.839 279.521 228.411 286.248 226.4C297.925 222.891 350.89 200.202 341.21 181.798C331.848 164.004 283.89 188.067 272.67 192.505Z" fill="url(#paint17_linear_196_2998)"/>
<g style="mix-blend-mode:multiply">
<path d="M289.576 208.315C289.576 209.952 288.245 211.297 286.595 211.297C284.944 211.297 283.613 209.966 283.613 208.315C283.613 206.665 284.944 205.333 286.595 205.333C288.245 205.347 289.576 206.679 289.576 208.315Z" fill="#BF6D92" fill-opacity="0.5"/>
</g>
<g style="mix-blend-mode:multiply">
<path d="M283.294 213.78C283.294 214.778 282.476 215.597 281.477 215.597C280.478 215.597 279.66 214.778 279.66 213.78C279.66 212.781 280.478 211.963 281.477 211.963C282.476 211.963 283.294 212.767 283.294 213.78Z" fill="#BF6D92" fill-opacity="0.5"/>
</g>
<g style="mix-blend-mode:multiply">
<path d="M328.284 284.622C329.823 284.054 331.543 284.858 332.098 286.397C332.666 287.937 331.862 289.657 330.323 290.211C328.783 290.78 327.063 289.976 326.509 288.436C325.94 286.897 326.744 285.191 328.284 284.622Z" fill="#BF6D92" fill-opacity="0.5"/>
</g>
<g style="mix-blend-mode:multiply">
<path d="M335.565 288.658C336.508 288.311 337.548 288.797 337.895 289.74C338.242 290.683 337.756 291.723 336.813 292.07C335.87 292.416 334.83 291.931 334.483 290.988C334.136 290.045 334.622 289.005 335.565 288.658Z" fill="#BF6D92" fill-opacity="0.5"/>
</g>
<g style="mix-blend-mode:multiply">
<path d="M433.507 209.204C433.507 209.939 432.91 210.521 432.189 210.521C431.454 210.521 430.872 209.925 430.872 209.204C430.872 208.469 431.468 207.886 432.189 207.886C432.91 207.886 433.507 208.483 433.507 209.204Z" fill="#BF6D92" fill-opacity="0.5"/>
</g>
<g style="mix-blend-mode:multiply">
<path d="M337.284 281.848C337.284 282.583 336.688 283.165 335.967 283.165C335.232 283.165 334.649 282.569 334.649 281.848C334.649 281.113 335.246 280.53 335.967 280.53C336.702 280.53 337.284 281.113 337.284 281.848Z" fill="#BF6D92" fill-opacity="0.5"/>
</g>
<g style="mix-blend-mode:multiply">
<path d="M415.269 89.8063C415.269 90.5414 414.673 91.1239 413.951 91.1239C413.23 91.1239 412.634 90.5275 412.634 89.8063C412.634 89.0713 413.23 88.4888 413.951 88.4888C414.673 88.4888 415.269 89.0851 415.269 89.8063Z" fill="#BF6D92" fill-opacity="0.5"/>
</g>
<g style="mix-blend-mode:multiply">
<path d="M411.636 86.3398C411.636 87.3383 410.817 88.1566 409.819 88.1566C408.82 88.1566 408.002 87.3383 408.002 86.3398C408.002 85.3412 408.82 84.5229 409.819 84.5229C410.817 84.5229 411.636 85.3412 411.636 86.3398Z" fill="#BF6D92" fill-opacity="0.5"/>
</g>
<path d="M363.649 37.7847V39.1161C376.478 39.1161 388.169 42.2227 398.418 48.3666C421.926 62.4434 428.68 87.3656 430.497 97.4205C432.716 109.736 431.246 119.777 430.497 123.522C424.797 152.452 401.262 168.956 391.415 174.711L388.502 176.417L391.789 177.166C407.835 180.814 422.425 185.154 433.978 189.745C435.351 190.286 440.302 192.38 446.044 196.208C452.659 200.618 459.483 205.167 459.552 210.95C459.608 215.638 455.28 219.202 455.086 219.355C452.673 221.31 449.539 222.253 445.517 222.253C438.901 222.253 430.76 219.66 422.883 217.136C415.907 214.903 409.042 211.991 402.496 208.482L400.069 207.178L400.554 209.896C401.248 213.766 401.594 217.496 401.594 220.978C401.581 228.037 404.243 263.416 407.1 288.616C407.378 291.015 407.53 293.497 407.669 295.897C407.849 298.879 408.043 301.971 408.459 305.009C408.695 306.659 408.917 308.087 409.125 309.322C409.846 313.815 410.054 315.424 409.084 316.561C408.182 317.615 406.421 318.198 404.132 318.198C401.414 318.198 398.294 317.38 395.783 316.007C389.861 312.789 387.601 306.617 384.55 296.854C380.68 284.441 377.102 271.626 373.898 258.798L373.593 257.563L372.345 257.813C370.14 258.257 367.865 258.479 365.619 258.479C364.925 258.479 364.232 258.451 363.552 258.409C360.779 258.243 358.019 257.73 355.37 256.898L354.108 256.496L353.705 257.758C349.281 271.585 345.176 285.051 341.487 297.769L341.251 298.573C338.228 309.003 335.842 317.241 329.934 319.03C329.074 319.293 328.118 319.432 327.147 319.432C324.65 319.432 322.32 318.572 320.92 317.13C319.339 315.507 319.283 313.482 319.269 306.021C319.269 304.454 319.269 302.665 319.241 300.612C319.2 296.909 319.061 294.995 318.964 293.595C318.853 292.111 318.798 291.292 318.95 289.448L324.831 217.247L324.844 217.15V217.053C324.692 214.598 324.72 212.129 324.9 209.716C324.983 208.607 325.122 207.414 325.302 206.055L325.621 203.697L323.444 204.654C310.92 210.188 301.295 214.431 294.264 217.552L294.153 217.607C284.389 221.935 277.94 224.778 272.587 224.778C270.826 224.778 269.189 224.472 267.566 223.835C262.712 221.921 260.479 219.022 259.453 216.928C259.425 216.859 257.858 213.544 258.316 209.799C259.925 196.555 296.4 186.736 308.382 183.518C317.092 181.174 325.954 179.274 334.719 177.873L339.088 177.18L335.052 175.349C324.761 170.675 299.867 156.737 291.032 128.32C289.812 124.395 286.081 112.427 288.827 97.5453C293.432 72.4983 313.195 56.9652 321.46 51.4593C322.528 50.752 323.43 50.1972 323.818 49.9476C329.893 46.203 342.61 39.8372 359.6 39.1715C360.779 39.1299 362.082 39.0883 363.635 39.0883V37.7847M363.649 37.7847C362.027 37.7847 360.654 37.8263 359.558 37.8679C340.766 38.6029 327.48 46.1614 323.125 48.8381C322.834 49.0184 321.877 49.6009 320.725 50.3637C316.62 53.0958 292.724 69.0172 287.51 97.3234C284.764 112.218 288.356 124.257 289.756 128.736C299.451 159.886 328.298 173.768 334.497 176.584C328.755 177.499 319.38 179.191 308.022 182.256C294.805 185.806 258.704 195.528 256.984 209.661C256.471 213.891 258.247 217.538 258.247 217.538C260.715 222.6 265.819 224.611 267.067 225.097C268.87 225.804 270.673 226.137 272.573 226.137C278.231 226.137 284.764 223.238 294.791 218.8C301.836 215.68 311.461 211.436 323.971 205.902C323.804 207.137 323.652 208.385 323.555 209.633C323.361 212.115 323.333 214.64 323.485 217.164C321.53 241.226 319.56 265.302 317.605 289.365C317.3 293.081 317.813 292.957 317.896 300.654C318.021 312.373 317.508 315.577 319.949 318.087C321.71 319.904 324.456 320.791 327.133 320.791C328.228 320.791 329.31 320.639 330.309 320.334C337.063 318.281 339.49 309.405 342.749 298.171C345.301 289.392 349.323 275.842 354.954 258.188C357.117 258.867 360.002 259.547 363.455 259.769C364.19 259.81 364.911 259.838 365.605 259.838C368.365 259.838 370.75 259.519 372.595 259.144C376.367 274.248 380.098 287.09 383.274 297.27C386.228 306.77 388.599 313.635 395.132 317.199C397.822 318.655 401.178 319.543 404.118 319.543C406.629 319.543 408.834 318.905 410.082 317.435C411.871 315.327 410.845 312.512 409.763 304.828C409 299.406 409.014 293.9 408.404 288.463C405.519 263.055 402.898 227.898 402.912 220.978C402.912 217.275 402.537 213.461 401.844 209.647C409.832 213.932 416.961 216.65 422.453 218.398C430.566 220.991 438.68 223.571 445.489 223.571C449.497 223.571 453.048 222.683 455.891 220.367C456.224 220.09 460.897 216.193 460.842 210.909C460.773 204.418 453.588 199.633 446.737 195.071C440.552 190.952 435.282 188.83 434.422 188.483C419.069 182.395 402.246 178.165 392.025 175.835C398.169 172.243 425.504 155.392 431.745 123.743C432.244 121.205 434.172 110.624 431.745 97.1431C429.998 87.4488 423.382 61.7638 399.043 47.1877C385.215 38.908 371.541 37.7847 363.649 37.7847Z" fill="white"/>
<g style="mix-blend-mode:multiply" opacity="0.3">
<path d="M435.5 81.9996C420.938 88.7399 404.202 89.5014 389.21 83.8013C374.203 78.1012 358.046 69.9187 351.653 55.19C339.989 84.8692 314.87 104.832 283 104C286 67 316.523 37.8401 353.567 33.8875C390.61 29.9211 422.5 47 435.5 81.9996Z" fill="#CA6D92"/>
</g>
<path d="M436.058 72.1511C421.496 78.8913 404.202 79.5015 389.21 73.8015C374.203 68.1014 358.046 59.9188 351.653 45.1901C339.989 74.8694 308.66 95.6171 276.789 94.7849C283.488 58.1436 316.523 27.8403 353.567 23.8877C390.61 19.9212 421.787 37.7287 436.058 72.1511Z" fill="white"/>
<path d="M354.232 137.862C352.207 137.862 350.141 137.723 348.074 137.432C347.339 137.335 329.989 134.797 327.812 124.853C326.952 120.9 329.754 117.364 332.957 116.226C333.484 116.046 334.011 115.894 334.538 115.797C338.754 114.992 342.346 116.864 345.522 118.529C347.214 119.416 348.809 120.248 350.224 120.526C355.55 121.608 360.709 120.165 364.093 118.764C368.683 116.864 373.843 115.256 377.268 117.724C378.294 118.459 379.973 120.221 379.723 123.702C379.446 127.557 376.755 132.883 365.563 136.253C362.012 137.321 358.171 137.862 354.232 137.862ZM336.535 122.259C336.286 122.259 336.036 122.287 335.787 122.329C335.592 122.37 335.384 122.426 335.19 122.495C334.663 122.675 334.303 123.258 334.33 123.424C335.107 126.989 343.498 130.068 349.003 130.83C354.135 131.538 359.197 131.219 363.649 129.873C369.474 128.112 372.913 125.699 373.094 123.216C373.094 123.175 373.094 123.147 373.094 123.119C372.372 123.092 370.597 123.272 366.645 124.908C360.556 127.432 354.426 128.167 348.906 127.044C346.563 126.573 344.468 125.477 342.444 124.423C340.322 123.313 338.297 122.259 336.535 122.259Z" fill="#FFB4B5"/>
<g style="mix-blend-mode:overlay">
<path d="M370.521 129.509C370.021 128.3 365.782 129.886 366.331 131.478C366.905 133.06 371.028 130.701 370.521 129.509Z" fill="#FFB4B5"/>
</g>
<path d="M273.28 210.881C273.128 211.311 272.961 211.741 272.781 212.185C271.699 214.792 270.16 217.58 268.052 220.52C266.984 222.018 265.777 223.557 264.39 225.125C262.449 227.357 260.174 229.66 257.553 232.045C256.568 232.933 255.528 233.834 254.432 234.736C253.115 235.845 251.728 236.955 250.258 238.078C248.205 236.511 246.305 234.958 244.544 233.418C244.142 233.071 243.74 232.725 243.365 232.378C241.715 230.894 240.189 229.452 238.816 228.009C238.4 227.579 237.998 227.177 237.623 226.747C235.252 224.195 233.296 221.727 231.715 219.355C231.424 218.953 231.174 218.551 230.925 218.162C229.094 215.319 227.832 212.615 227.014 210.105C226.834 209.522 226.653 208.94 226.515 208.385C225.655 204.973 225.641 201.964 226.265 199.426C226.487 198.524 226.778 197.664 227.166 196.888C231.036 188.761 242.491 187.499 250.272 197.456C261.422 183.213 280.048 191.964 273.28 210.881Z" fill="#F74217"/>
<path d="M233.893 204.307C231.119 205.791 228.401 207.525 227.014 210.118C226.833 209.536 226.653 208.953 226.514 208.398C228.151 206.11 230.703 204.529 233.269 203.142L233.615 202.962C235.682 201.852 237.818 200.715 239.01 198.801C239.704 197.706 239.898 196.208 239.523 194.987C239.343 194.377 238.927 193.573 238.012 193.171C236.417 192.463 234.434 193.476 233.088 194.308C230.661 195.792 228.373 197.498 226.251 199.439C226.473 198.538 226.764 197.678 227.152 196.901C228.817 195.528 230.564 194.28 232.381 193.171C233.976 192.2 236.361 191.007 238.539 191.964C239.607 192.449 240.397 193.379 240.772 194.599C241.271 196.194 241.007 198.094 240.12 199.509C238.747 201.7 236.445 202.948 234.226 204.127L233.893 204.307Z" fill="white"/>
<path d="M244.71 219.964C242.644 221.532 240.328 223.307 239.274 225.803C238.996 226.497 238.83 227.259 238.816 228.022C238.4 227.592 237.998 227.19 237.623 226.76C237.706 226.247 237.845 225.748 238.053 225.276C239.232 222.461 241.825 220.491 243.906 218.897L263.835 203.696C267.497 200.909 268.953 198.482 268.287 196.249C267.705 194.307 265.555 193.309 263.808 193.211C261.699 193.101 259.619 193.96 257.844 194.806C249.842 198.662 242.935 204.972 238.358 212.572C236.874 215.027 234.78 218.522 231.729 219.354C231.438 218.952 231.188 218.55 230.938 218.161C233.463 217.787 235.363 214.985 237.207 211.893C241.909 204.071 249.023 197.58 257.248 193.628C259.175 192.712 261.45 191.783 263.863 191.908C266.554 192.046 268.883 193.683 269.549 195.874C270.381 198.69 268.786 201.602 264.64 204.764L244.71 219.964Z" fill="white"/>
<path d="M266.803 221.504C267.219 221.185 267.635 220.852 268.052 220.52C266.984 222.017 265.777 223.557 264.39 225.124C262.185 226.955 260.035 228.882 258.26 231.088C258.024 231.393 257.775 231.712 257.553 232.044C256.568 232.932 255.528 233.834 254.432 234.735C255.223 233.057 256.194 231.531 257.22 230.242C259.966 226.858 263.447 224.153 266.803 221.504Z" fill="white"/>
<path d="M273.28 210.881C273.128 211.311 272.961 211.741 272.781 212.185C272.074 211.547 271.047 211.172 270.118 211.158C268.371 211.144 266.679 211.99 265.139 212.934C259.439 216.415 254.516 221.199 250.896 226.83L250.369 227.676C249.426 229.188 248.441 230.755 247.054 231.962C246.292 232.627 245.446 233.14 244.558 233.432C244.156 233.085 243.754 232.738 243.379 232.391C244.461 232.183 245.473 231.587 246.181 230.963C247.429 229.867 248.316 228.453 249.246 226.969L249.787 226.109C253.503 220.312 258.579 215.374 264.446 211.81C266.082 210.812 268.024 209.869 270.132 209.841C271.214 209.841 272.365 210.215 273.28 210.881Z" fill="white"/>
<path d="M250.272 239.839L249.426 239.201C223.713 219.522 223.657 204.89 224.822 199.509C225.96 194.28 229.593 190.48 234.517 189.343C239.981 188.095 245.778 190.314 250.258 195.307C254.751 190.314 260.535 188.095 265.999 189.343C270.936 190.466 274.57 194.28 275.707 199.523C276.872 204.904 276.816 219.535 251.09 239.188L250.272 239.839ZM237.554 191.77C236.75 191.77 235.945 191.853 235.155 192.034C231.299 192.907 228.442 195.917 227.541 200.078C225.377 210.035 233.865 223.544 250.272 236.331C266.692 223.557 275.18 210.063 273.016 200.105C272.115 195.945 269.272 192.921 265.402 192.034C260.562 190.924 255.306 193.268 251.367 198.302L250.272 199.703L249.176 198.302C245.889 194.1 241.687 191.77 237.554 191.77Z" fill="#B05A37"/>
<path d="M273.003 113.383L269.938 114.312C268.8 110.526 268.19 106.754 268.121 103.065C268.01 96.0195 271.325 89.7508 277.441 85.4237C279.216 84.1755 281.116 83.1909 282.974 82.2339C283.862 81.7762 284.791 81.2908 285.665 80.8054C292.239 77.1163 294.86 70.3484 296.704 63.5942C300.976 48.0196 302.571 36.7443 300.158 25.4273L299.797 22.9448C308.354 28.3259 304.194 48.3524 299.783 64.4402C297.745 71.8601 294.818 79.3215 287.218 83.593C286.289 84.1201 285.346 84.6055 284.431 85.077C282.6 86.0201 280.866 86.9216 279.285 88.0449C274.057 91.7479 271.214 97.0597 271.311 103.023C271.38 106.352 271.949 109.93 273.003 113.383Z" fill="#F74217"/>
<path d="M351.403 39.8922L349.489 42.458C348.518 41.7368 346.979 41.5288 345.467 41.3207C344.982 41.2514 344.51 41.1959 344.066 41.1127C338.034 40.0448 331.737 39.5871 326.592 43.4981C323.763 45.6617 321.71 48.5464 319.546 51.6114C318.631 52.9012 317.702 54.2326 316.69 55.4946C313.236 59.8494 309.256 62.5122 304.138 63.8853C298.549 65.3831 293.681 67.7962 288.994 70.1401C284.583 72.3452 279.923 73.8846 274.75 74.8693C268.495 76.062 263.114 77.6153 258.274 73.843L259.189 72.9832C262.962 74.689 268.315 72.8445 274.154 71.735C279.036 70.8058 283.432 69.3496 287.565 67.2831C292.405 64.8699 297.412 62.3736 303.32 60.7925C307.8 59.5998 311.156 57.3531 314.193 53.5114C315.136 52.3048 316.052 51.015 316.939 49.7668C319.144 46.6463 321.433 43.401 324.664 40.9601C330.794 36.2864 338.2 36.8272 344.635 37.9645C345.037 38.0338 345.467 38.0893 345.911 38.1586C347.728 38.3944 349.78 38.6718 351.403 39.8922Z" fill="#F74217"/>
<path d="M297.994 64.8147L294.971 63.6497C284.971 60.6541 268.301 63.414 261.658 66.5622C259.966 67.3666 258.995 68.2958 258.787 69.3221C258.538 70.5564 258.829 72.4426 259.203 72.8586L258.246 73.8017C258.149 73.6907 255.043 71.7907 255.653 68.7119C256.055 66.6315 257.622 64.9395 260.285 63.6775C267.566 60.2241 285.082 57.3117 295.956 60.6125L296.066 60.6541L299.159 61.8468L297.994 64.8147Z" fill="#F74217"/>
<path d="M299.867 24.4566L299.728 22.8617C293.764 18.1463 289.382 23.6522 289.007 32.0012C288.578 41.1962 292.239 56.868 292.405 57.5337L293.973 62.6097L297.024 61.6666L295.498 56.757C295.262 55.7446 292.072 41.4043 292.475 32.9166C292.808 25.6355 295.443 24.4843 296.621 24.0267C296.608 24.0128 297.745 23.6106 299.867 24.4566Z" fill="#F74217"/>
<path d="M382.178 37.8678L381.068 34.8722C384.771 33.4992 388.516 32.667 392.177 32.3897C399.209 31.8626 405.658 34.789 410.345 40.6416C411.705 42.3336 412.8 44.1781 413.868 45.9672C414.381 46.8271 414.922 47.7285 415.463 48.5745C419.54 54.9126 426.447 57.1177 433.298 58.5739C449.095 61.9025 460.453 62.8178 471.604 59.7389L474.059 59.2396C469.205 68.1018 448.956 65.1477 432.633 61.7083C425.102 60.1272 417.488 57.6447 412.772 50.322C412.19 49.4344 411.649 48.5052 411.122 47.6176C410.068 45.8424 409.069 44.1781 407.849 42.6526C403.841 37.6459 398.363 35.1357 392.427 35.5933C389.098 35.8291 385.548 36.6196 382.178 37.8678Z" fill="#F74217"/>
<path d="M460.232 111.733L457.555 109.972C458.221 108.959 458.332 107.406 458.456 105.894C458.498 105.409 458.526 104.937 458.581 104.48C459.289 98.3911 459.372 92.0808 455.156 87.1851C452.84 84.4946 449.83 82.6223 446.626 80.6391C445.281 79.8069 443.908 78.9471 442.577 78.0179C438.014 74.8419 435.115 71.0141 433.451 65.9936C431.62 60.5016 428.916 55.8 426.295 51.2511C423.84 46.9795 422.009 42.4305 420.719 37.3129C419.152 31.1413 417.28 25.8573 420.761 20.8091L421.676 21.6689C420.206 25.5245 422.356 30.7807 423.812 36.5363C425.033 41.3626 426.752 45.6481 429.055 49.6562C431.759 54.3438 434.547 59.184 436.474 64.9951C437.931 69.3915 440.371 72.609 444.393 75.4105C445.642 76.2842 447.001 77.1164 448.291 77.9346C451.55 79.9595 454.906 82.0398 457.555 85.1187C462.589 90.9574 462.492 98.3911 461.743 104.868C461.702 105.27 461.66 105.714 461.632 106.158C461.508 107.974 461.341 110.041 460.232 111.733Z" fill="#F74217"/>
<path d="M432.161 59.9188L433.145 56.8261C435.545 46.6603 431.786 30.198 428.236 23.7352C427.334 22.0987 426.35 21.1833 425.31 21.0446C424.061 20.8643 422.189 21.2804 421.801 21.6687L420.802 20.7672C420.899 20.6702 422.619 17.4526 425.726 17.8687C427.82 18.146 429.609 19.6023 431.037 22.1957C434.921 29.2549 438.873 46.5632 436.238 57.6166L436.21 57.7276L435.198 60.8758L432.161 59.9188Z" fill="#F74217"/>
<path d="M472.547 59.3648L474.142 59.129C478.483 52.888 472.741 48.8522 464.378 48.9632C455.183 49.088 439.748 53.6786 439.096 53.8727L434.131 55.745L435.254 58.7407L440.066 56.9239C441.065 56.6326 455.183 52.5829 463.685 52.472C470.98 52.3749 472.27 54.9406 472.797 56.0779C472.797 56.0917 473.254 57.2012 472.547 59.3648Z" fill="#F74217"/>
<g style="mix-blend-mode:multiply" opacity="0.3">
<path d="M432.369 257.779C437.612 267.612 431.87 280.094 420.844 281.689C420.428 281.745 420.012 281.8 419.596 281.828C411.261 282.438 402.843 276.863 400.152 268.93C395.548 277.57 386.777 283 377 283C367.209 283 360.104 275.14 355.5 266.5C354.155 274.96 342.624 284.172 334.053 283.853C325.496 283.52 317.785 276.142 317.078 267.599C314.207 272.869 308.464 272.277 302.5 271.5C296.55 270.709 293.915 264.325 292.5 258.5C290.447 250.151 292.489 247.406 297.468 240.416C308.438 224.98 321.169 201.763 332.361 185.287C333.18 184.108 333.97 182.943 334.761 181.834C354.995 189.282 372.706 188.366 392.705 180.322C394.313 183.179 395.95 186.217 397.628 189.379C408.751 210.348 421.26 236.949 432.369 257.779Z" fill="#CA6D92"/>
</g>
<path d="M432.369 251.779C437.612 261.612 431.87 274.094 420.844 275.689C420.428 275.745 420.012 275.8 419.596 275.828C411.261 276.438 402.843 270.863 400.152 262.93C395.548 271.57 385.964 277.326 376.187 277.326C366.396 277.326 356.826 271.57 352.222 262.93C350.876 271.39 342.624 278.172 334.053 277.853C325.496 277.52 317.785 270.142 317.078 261.599C314.207 266.869 307.911 270.072 301.947 269.296C295.998 268.505 290.727 263.804 289.313 257.979C287.26 249.63 292.489 241.406 297.468 234.416C308.438 218.98 321.169 195.763 332.361 179.287C333.18 178.108 333.97 176.943 334.761 175.834C354.995 183.282 372.706 182.366 392.705 174.322C394.313 177.179 395.95 180.217 397.628 183.379C408.751 204.348 421.26 230.949 432.369 251.779Z" fill="#FFB4B5"/>
<g style="mix-blend-mode:overlay">
<path d="M316.883 263.041L315.691 262.459C327.77 237.911 336.216 211.782 340.821 184.807L342.138 185.029C337.52 212.129 329.019 238.368 316.883 263.041Z" fill="#CA6D92"/>
</g>
<g style="mix-blend-mode:overlay">
<path d="M400.526 263.998C389.14 237.148 381.138 207.608 377.379 178.566L378.697 178.4C382.441 207.316 390.402 236.732 401.747 263.471L400.526 263.998Z" fill="#CA6D92"/>
</g>
<path d="M397.614 183.406C397.489 186.138 396.435 188.884 394.508 190.826C388.031 197.4 377.921 194.335 371.388 189.509C368.254 187.193 366.659 184.197 364.287 181.298C360.834 185.237 359.211 189.328 354.26 191.88C349.046 194.571 342.347 194.973 337.437 191.728C333.443 189.106 331.252 183.795 332.334 179.287C333.152 178.108 333.943 176.943 334.733 175.834C354.968 183.282 372.678 182.366 392.677 174.322C394.3 177.207 395.936 180.244 397.614 183.406Z" fill="white"/>
<g style="mix-blend-mode:multiply" opacity="0.5">
<path d="M365.308 235.649C372.477 227.627 384.645 239.195 364.184 252.809C345.675 236.614 358.933 239.306 365.308 235.649Z" fill="#CA6D92"/>
</g>
<g style="mix-blend-mode:multiply" opacity="0.5">
<path d="M365.762 206.925C373.151 199.106 384.993 211.008 364.161 224.048C346.11 207.344 359.288 210.404 365.762 206.925Z" fill="#CA6D92"/>
</g>
<path d="M363.413 235.068C370.043 226.594 382.941 237.343 363.413 252.265C343.886 237.315 356.798 226.594 363.413 235.068Z" fill="#F74217"/>
<path d="M363.885 206.678C370.515 198.205 383.413 208.953 363.885 223.876C344.358 208.925 357.256 198.205 363.885 206.678Z" fill="#F74217"/>
<g style="mix-blend-mode:hard-light">
<path d="M392.094 176.015C393.342 178.262 394.715 180.786 396.435 184.031C401.955 194.405 407.919 206.387 413.674 217.968C419.527 229.729 425.573 241.892 431.176 252.404C433.534 256.814 433.576 262.126 431.315 266.592C429.152 270.864 425.268 273.693 420.636 274.358C420.262 274.414 419.873 274.456 419.485 274.483C419.097 274.511 418.708 274.525 418.32 274.525C410.886 274.525 403.758 269.463 401.4 262.487L400.416 259.574L398.973 262.293C394.604 270.475 385.451 275.981 376.173 275.981C366.895 275.981 357.741 270.475 353.386 262.293L351.514 258.784L350.89 262.709C349.683 270.323 342.388 276.508 334.622 276.508C334.442 276.508 334.261 276.508 334.095 276.494C326.231 276.189 319.033 269.31 318.395 261.474L318.035 257.036L315.899 260.947C313.583 265.205 308.687 268.062 303.736 268.062C303.195 268.062 302.654 268.02 302.114 267.965C296.719 267.258 291.878 262.917 290.589 257.647C288.689 249.908 293.695 241.989 298.535 235.179C304.471 226.844 310.99 216.096 317.314 205.694C322.709 196.804 328.298 187.609 333.443 180.037C334.053 179.149 334.65 178.275 335.246 177.429C344.344 180.675 352.984 182.256 361.597 182.256C371.333 182.27 381.318 180.217 392.094 176.015ZM392.691 174.351C381.915 178.692 371.804 180.952 361.597 180.952C352.859 180.952 344.067 179.288 334.747 175.862C333.956 176.972 333.166 178.123 332.347 179.316C321.155 195.792 308.424 219.008 297.454 234.444C292.489 241.434 287.246 249.658 289.299 258.007C290.727 263.846 295.984 268.547 301.933 269.324C302.53 269.407 303.126 269.435 303.722 269.435C309.117 269.435 314.471 266.37 317.064 261.627C317.771 270.17 325.482 277.548 334.039 277.881C334.234 277.895 334.428 277.895 334.622 277.895C342.971 277.895 350.89 271.238 352.208 262.972C356.798 271.612 366.382 277.368 376.173 277.368C385.964 277.368 395.534 271.612 400.138 262.972C402.69 270.503 410.415 275.912 418.32 275.912C418.736 275.912 419.152 275.898 419.582 275.87C419.998 275.842 420.414 275.801 420.83 275.731C431.856 274.123 437.598 261.655 432.355 251.822C421.26 230.991 408.751 204.39 397.614 183.449C395.936 180.245 394.299 177.208 392.691 174.351Z" fill="white"/>
</g>
<path d="M362.054 183.906C347.381 183.906 332.708 181.229 319.116 175.876C318.09 175.474 317.591 174.309 317.993 173.282C318.395 172.256 319.56 171.757 320.587 172.159C345.717 182.061 374.716 182.505 400.152 173.393C401.192 173.019 402.329 173.56 402.704 174.6C403.078 175.64 402.537 176.777 401.497 177.152C388.918 181.645 375.493 183.906 362.054 183.906Z" fill="white"/>
<g style="mix-blend-mode:multiply" opacity="0.3">
<path d="M311.085 117.666C311.349 122.631 315.44 126.459 320.225 126.209C325.01 125.959 328.671 121.716 328.408 116.751C328.144 111.786 324.053 107.958 319.268 108.207C314.497 108.457 310.822 112.687 311.085 117.666Z" fill="#CA6D92"/>
</g>
<path d="M321.752 114.589C321.71 114.589 321.655 114.589 321.613 114.576C319.782 114.173 317.078 113.216 314.554 111.011C311.586 108.404 310.268 105.311 309.686 103.189C309.589 102.829 309.797 102.468 310.157 102.371C310.504 102.274 310.879 102.482 310.976 102.843C311.406 104.437 312.571 107.502 315.441 110.013C317.758 112.038 320.24 112.911 321.904 113.286C322.265 113.369 322.487 113.716 322.404 114.076C322.334 114.367 322.057 114.589 321.752 114.589Z" fill="#730F03"/>
<path d="M316.121 114.299C316.079 114.299 316.024 114.299 315.982 114.285C312.224 113.467 308.757 111.234 306.482 108.127C306.26 107.836 306.33 107.42 306.621 107.198C306.912 106.976 307.328 107.045 307.55 107.337C309.63 110.18 312.806 112.232 316.26 112.981C316.62 113.064 316.842 113.411 316.773 113.772C316.704 114.091 316.426 114.299 316.121 114.299Z" fill="#730F03"/>
<path d="M310.088 116.975C310.31 121.274 313.985 124.575 318.284 124.339C322.584 124.117 325.885 120.442 325.649 116.143C325.427 111.843 321.752 108.543 317.452 108.778C313.153 109.014 309.866 112.676 310.088 116.975Z" fill="#730F03"/>
<g style="mix-blend-mode:overlay" opacity="0.3">
<path d="M313.471 114.422C313.767 117.87 317.368 116.793 318.049 113.618C318.748 110.44 313.143 110.457 313.471 114.422Z" fill="#FFB4B5"/>
</g>
<g style="mix-blend-mode:multiply" opacity="0.3">
<path d="M400.899 116.598C400.635 121.564 396.544 125.391 391.759 125.142C386.974 124.892 383.313 120.648 383.576 115.683C383.84 110.718 387.931 106.89 392.716 107.14C397.501 107.39 401.162 111.633 400.899 116.598Z" fill="#CA6D92"/>
</g>
<path d="M386.88 113.522C386.574 113.522 386.297 113.314 386.228 112.995C386.145 112.634 386.38 112.274 386.727 112.204C388.405 111.83 390.874 110.97 393.19 108.931C396.061 106.421 397.226 103.356 397.656 101.761C397.753 101.4 398.127 101.192 398.474 101.289C398.834 101.387 399.042 101.747 398.945 102.108C398.363 104.243 397.045 107.322 394.077 109.93C391.553 112.149 388.849 113.092 387.018 113.494C386.977 113.508 386.921 113.522 386.88 113.522Z" fill="#730F03"/>
<path d="M392.496 113.23C392.191 113.23 391.914 113.022 391.845 112.703C391.761 112.343 391.997 111.996 392.358 111.913C395.797 111.164 398.973 109.111 401.067 106.268C401.289 105.977 401.705 105.908 401.997 106.129C402.288 106.351 402.357 106.767 402.135 107.059C399.861 110.151 396.394 112.398 392.635 113.216C392.594 113.23 392.552 113.23 392.496 113.23Z" fill="#730F03"/>
<path d="M398.529 115.907C398.307 120.206 394.632 123.507 390.333 123.271C386.033 123.05 382.733 119.374 382.968 115.075C383.19 110.776 386.866 107.475 391.165 107.711C395.464 107.946 398.765 111.622 398.529 115.907Z" fill="#730F03"/>
<g style="mix-blend-mode:overlay" opacity="0.3">
<path d="M386.471 113.422C386.767 116.87 390.368 115.793 391.049 112.618C391.748 109.44 386.143 109.457 386.471 113.422Z" fill="#FFB4B5"/>
</g>
<defs>
<linearGradient id="paint0_linear_196_2998" x1="110.046" y1="156.727" x2="110.046" y2="264.642" gradientUnits="userSpaceOnUse">
<stop offset="0.217447" stop-color="#DF6737"/>
<stop offset="0.758465" stop-color="#C26029"/>
</linearGradient>
<linearGradient id="paint1_linear_196_2998" x1="88.6556" y1="173.945" x2="53.7436" y2="225.698" gradientUnits="userSpaceOnUse">
<stop stop-color="#DF6737"/>
<stop offset="1" stop-color="#C26029"/>
</linearGradient>
<linearGradient id="paint2_linear_196_2998" x1="113.22" y1="29.1445" x2="113.22" y2="183.366" gradientUnits="userSpaceOnUse">
<stop stop-color="#C26029"/>
<stop offset="1" stop-color="#DF6737"/>
</linearGradient>
<linearGradient id="paint3_linear_196_2998" x1="81.2343" y1="218.065" x2="81.2343" y2="325.782" gradientUnits="userSpaceOnUse">
<stop stop-color="#C6612B"/>
<stop offset="1" stop-color="#B95126"/>
</linearGradient>
<linearGradient id="paint4_linear_196_2998" x1="139.174" y1="219.105" x2="139.174" y2="326.822" gradientUnits="userSpaceOnUse">
<stop stop-color="#C6612B"/>
<stop offset="1" stop-color="#B95126"/>
</linearGradient>
<linearGradient id="paint5_linear_196_2998" x1="138.033" y1="178.995" x2="189.655" y2="230.617" gradientUnits="userSpaceOnUse">
<stop stop-color="#DF6737"/>
<stop offset="1" stop-color="#C26029"/>
</linearGradient>
<linearGradient id="paint6_linear_196_2998" x1="364.674" y1="158.309" x2="364.674" y2="266.223" gradientUnits="userSpaceOnUse">
<stop stop-color="#DF6737"/>
<stop offset="1" stop-color="#C26029"/>
</linearGradient>
<linearGradient id="paint7_linear_196_2998" x1="361.486" y1="30.7114" x2="361.486" y2="184.932" gradientUnits="userSpaceOnUse">
<stop stop-color="#DF6737"/>
<stop offset="1" stop-color="#C26029"/>
</linearGradient>
<linearGradient id="paint8_linear_196_2998" x1="406.636" y1="125.349" x2="406.636" y2="135.712" gradientUnits="userSpaceOnUse">
<stop stop-color="#DF6737"/>
<stop offset="1" stop-color="#C26029"/>
</linearGradient>
<linearGradient id="paint9_linear_196_2998" x1="412.53" y1="125.655" x2="412.53" y2="135.74" gradientUnits="userSpaceOnUse">
<stop stop-color="#DF6737"/>
<stop offset="1" stop-color="#C26029"/>
</linearGradient>
<linearGradient id="paint10_linear_196_2998" x1="400.679" y1="124.959" x2="400.679" y2="134.88" gradientUnits="userSpaceOnUse">
<stop stop-color="#DF6737"/>
<stop offset="1" stop-color="#C26029"/>
</linearGradient>
<linearGradient id="paint11_linear_196_2998" x1="315.393" y1="127.069" x2="315.393" y2="137.433" gradientUnits="userSpaceOnUse">
<stop stop-color="#DF6737"/>
<stop offset="1" stop-color="#C26029"/>
</linearGradient>
<linearGradient id="paint12_linear_196_2998" x1="321.273" y1="127.375" x2="321.273" y2="137.46" gradientUnits="userSpaceOnUse">
<stop stop-color="#DF6737"/>
<stop offset="1" stop-color="#C26029"/>
</linearGradient>
<linearGradient id="paint13_linear_196_2998" x1="309.436" y1="126.679" x2="309.436" y2="136.6" gradientUnits="userSpaceOnUse">
<stop stop-color="#DF6737"/>
<stop offset="1" stop-color="#C26029"/>
</linearGradient>
<linearGradient id="paint14_linear_196_2998" x1="393.472" y1="219.632" x2="393.472" y2="327.349" gradientUnits="userSpaceOnUse">
<stop stop-color="#DF6737"/>
<stop offset="1" stop-color="#C26029"/>
</linearGradient>
<linearGradient id="paint15_linear_196_2998" x1="335.533" y1="220.659" x2="335.533" y2="328.375" gradientUnits="userSpaceOnUse">
<stop stop-color="#DF6737"/>
<stop offset="1" stop-color="#C26029"/>
</linearGradient>
<linearGradient id="paint16_linear_196_2998" x1="420.975" y1="173.697" x2="420.975" y2="227.265" gradientUnits="userSpaceOnUse">
<stop stop-color="#DF6737"/>
<stop offset="1" stop-color="#C26029"/>
</linearGradient>
<linearGradient id="paint17_linear_196_2998" x1="297.184" y1="175.326" x2="297.184" y2="228.888" gradientUnits="userSpaceOnUse">
<stop stop-color="#DF6737"/>
<stop offset="1" stop-color="#C26029"/>
</linearGradient>
</defs>
</svg>
