<?xml version="1.0" standalone="no"?>
<!DOCTYPE svg PUBLIC "-//W3C//DTD SVG 20010904//EN"
 "http://www.w3.org/TR/2001/REC-SVG-20010904/DTD/svg10.dtd">
<svg version="1.0" xmlns="http://www.w3.org/2000/svg"
 width="308.000000pt" height="308.000000pt" viewBox="0 0 308.000000 308.000000"
 preserveAspectRatio="xMidYMid meet">
<metadata>
Created by potrace 1.14, written by Peter Selinger 2001-2017
</metadata>
<g transform="translate(0.000000,308.000000) scale(0.100000,-0.100000)"
fill="#000000" stroke="none">
<path d="M1511 2984 c-45 -14 -96 -48 -143 -96 -29 -30 -88 -113 -88 -124 0
-4 -6 -15 -13 -23 -18 -21 -61 -132 -83 -212 -9 -35 -17 -104 -18 -154 l-1
-90 -165 -1 c-180 -3 -209 -6 -283 -35 -138 -54 -246 -176 -290 -326 -30 -102
-6 -289 47 -365 14 -20 16 -91 16 -561 0 -373 3 -545 11 -560 62 -123 452
-252 854 -284 160 -12 476 -6 571 11 10 2 41 7 67 10 27 4 59 9 70 12 253 48
445 115 545 190 64 49 62 29 62 618 l0 534 25 49 c35 68 56 158 54 228 -2 64
-24 164 -40 180 -5 5 -9 15 -9 22 0 17 -43 80 -87 126 -67 71 -165 125 -258
142 -22 4 -113 8 -201 9 l-162 1 3 70 c6 178 -88 415 -213 541 -88 88 -177
117 -271 88z"/>
</g>
</svg>
